<svg width="36" height="36" viewBox="0 0 36 36" fill="none" xmlns="http://www.w3.org/2000/svg">
<path fill-rule="evenodd" clip-rule="evenodd" d="M22.8286 10.4536C22.9331 10.3488 23.0572 10.2657 23.1939 10.209C23.3306 10.1522 23.4771 10.123 23.6251 10.123C23.773 10.123 23.9196 10.1522 24.0562 10.209C24.1929 10.2657 24.3171 10.3488 24.4216 10.4536L31.1716 17.2036C31.2763 17.3081 31.3594 17.4322 31.4162 17.5689C31.4729 17.7056 31.5021 17.8521 31.5021 18.0001C31.5021 18.148 31.4729 18.2946 31.4162 18.4312C31.3594 18.5679 31.2763 18.6921 31.1716 18.7966L24.4216 25.5466C24.2103 25.7578 23.9238 25.8765 23.6251 25.8765C23.3263 25.8765 23.0398 25.7578 22.8286 25.5466C22.6173 25.3353 22.4986 25.0488 22.4986 24.7501C22.4986 24.4513 22.6173 24.1648 22.8286 23.9536L28.7843 18.0001L22.8286 12.0466C22.7238 11.9421 22.6407 11.8179 22.584 11.6812C22.5272 11.5446 22.498 11.398 22.498 11.2501C22.498 11.1021 22.5272 10.9556 22.584 10.8189C22.6407 10.6822 22.7238 10.5581 22.8286 10.4536Z" fill="black"/>
<path fill-rule="evenodd" clip-rule="evenodd" d="M13.5 18C13.5 17.7016 13.6185 17.4155 13.8295 17.2045C14.0405 16.9935 14.3266 16.875 14.625 16.875H29.25C29.5484 16.875 29.8345 16.9935 30.0455 17.2045C30.2565 17.4155 30.375 17.7016 30.375 18C30.375 18.2984 30.2565 18.5845 30.0455 18.7955C29.8345 19.0065 29.5484 19.125 29.25 19.125H14.625C14.3266 19.125 14.0405 19.0065 13.8295 18.7955C13.6185 18.5845 13.5 18.2984 13.5 18ZM7.875 31.5C7.57663 31.5 7.29048 31.3815 7.07951 31.1705C6.86853 30.9595 6.75 30.6734 6.75 30.375V5.625C6.75 5.32663 6.86853 5.04048 7.07951 4.82951C7.29048 4.61853 7.57663 4.5 7.875 4.5C8.17337 4.5 8.45952 4.61853 8.67049 4.82951C8.88147 5.04048 9 5.32663 9 5.625V30.375C9 30.6734 8.88147 30.9595 8.67049 31.1705C8.45952 31.3815 8.17337 31.5 7.875 31.5Z" fill="black"/>
</svg>
