<svg width="60" height="60" viewBox="0 0 60 60" fill="none" xmlns="http://www.w3.org/2000/svg">
<path d="M0 30C0 13.4315 13.4315 0 30 0C46.5685 0 60 13.4315 60 30C60 46.5685 46.5685 60 30 60C13.4315 60 0 46.5685 0 30Z" fill="#EF4545"/>
<path d="M28.8348 40.9358L28.8326 40.9338C24.9406 37.4046 21.8311 34.5773 19.677 31.942C17.5394 29.3268 16.5 27.0844 16.5 24.75C16.5 20.9452 19.4566 18 23.25 18C25.4065 18 27.5012 19.0117 28.8617 20.5969L30 21.9231L31.1383 20.5969C32.4988 19.0117 34.5935 18 36.75 18C40.5434 18 43.5 20.9452 43.5 24.75C43.5 27.0844 42.4606 29.3268 40.323 31.942C38.1689 34.5773 35.0594 37.4046 31.1674 40.9338L31.1652 40.9358L30 41.9965L28.8348 40.9358Z" stroke="white" stroke-width="3"/>
</svg>
