<svg width="36" height="36" viewBox="0 0 36 36" fill="none" xmlns="http://www.w3.org/2000/svg">
<path d="M16.8348 28.9358L16.8326 28.9338C12.9406 25.4046 9.83109 22.5773 7.67702 19.942C5.53944 17.3268 4.5 15.0844 4.5 12.75C4.5 8.94521 7.45664 6 11.25 6C13.4065 6 15.5012 7.01169 16.8617 8.59692L18 9.92314L19.1383 8.59692C20.4988 7.01169 22.5935 6 24.75 6C28.5434 6 31.5 8.94521 31.5 12.75C31.5 15.0844 30.4606 17.3268 28.323 19.942C26.1689 22.5773 23.0594 25.4046 19.1674 28.9338L19.1652 28.9358L18 29.9965L16.8348 28.9358Z" stroke="black" stroke-width="3"/>
</svg>
