<svg width="342" height="199" viewBox="0 0 342 199" fill="none" xmlns="http://www.w3.org/2000/svg">
<g filter="url(#filter0_d)">
<path d="M68.6707 123.883C84.771 123.883 94.2234 111.526 94.2234 94.703V75.3879C94.2234 56.4883 84.4594 46 67.9436 46H49.3503C48.5194 46 48 46.7269 48 47.5577V122.637C48 123.364 48.4155 123.883 49.2465 123.883H68.6707ZM73.345 99.5836C73.345 102.595 71.2675 102.595 70.6443 102.595C70.2288 102.595 70.021 102.387 70.021 101.764V67.2881C70.021 66.665 70.2288 66.3535 70.6443 66.3535C71.1636 66.3535 71.9946 66.665 72.4101 66.9765C73.0333 67.4958 73.345 68.3265 73.345 69.365V99.5836Z" fill="#D16243"/>
<path d="M97.7048 122.533C97.7048 123.26 98.2241 123.883 98.8474 123.883H136.034C136.657 123.883 137.176 123.364 137.176 122.741V103.426C137.176 102.907 136.761 102.387 136.034 102.387H118.064C117.752 102.387 117.441 102.076 117.441 101.661V95.5337C117.441 95.0145 117.752 94.703 118.168 94.703H126.581C126.997 94.703 127.412 94.2876 127.412 93.7684V74.8687C127.412 74.4533 127.101 74.1418 126.685 74.1418H118.479C118.168 74.1418 117.752 73.8303 117.752 73.4149V67.5996C117.752 67.1842 118.064 66.8727 118.479 66.8727H135.826C136.449 66.8727 136.969 66.4573 136.969 65.8343V47.1423C136.969 46.5192 136.553 46 135.93 46H99.0551C98.328 46 97.7048 46.7269 97.7048 47.35V122.533Z" fill="#D16243"/>
<path d="M162.098 102.387C161.475 102.387 161.267 101.972 161.371 101.349L175.705 66.9765C175.913 66.4573 176.121 65.7304 176.121 65.2112L176.017 47.2461C176.017 46.6231 175.601 46 175.082 46H142.258C141.843 46 141.427 46.5192 141.427 47.1423V65.9381C141.427 66.4573 141.739 66.8727 142.258 66.8727H155.865C156.281 66.8727 156.489 67.2881 156.385 67.8073L141.739 103.114C141.427 103.634 141.323 104.257 141.323 104.88V122.845C141.323 123.468 141.843 123.883 142.258 123.883H174.978C175.601 123.883 176.121 123.468 176.121 122.741V103.426C176.121 102.907 175.705 102.387 174.978 102.387H162.098Z" fill="#D16243"/>
<path d="M198.973 123.883C199.7 123.883 200.219 123.156 200.219 122.533V47.0384C200.219 46.4154 199.7 46 198.973 46H181.21C180.691 46 180.276 46.5192 180.276 47.0384V122.326C180.276 123.156 180.899 123.883 181.626 123.883H198.973Z" fill="#D16243"/>
<path d="M204.418 122.429C204.418 123.26 204.833 123.883 205.457 123.883H221.245C221.972 123.883 222.596 123.26 222.596 122.533V104.153C222.596 103.114 222.803 102.699 223.115 102.699C223.427 102.699 223.842 103.114 224.05 104.153L228.62 122.845C228.724 123.468 229.347 123.883 229.763 123.883H249.187C249.914 123.883 250.33 123.26 250.33 122.533V47.4538C250.33 46.7269 249.81 46 248.979 46H233.398C232.671 46 232.152 46.6231 232.152 47.35V70.5072C232.152 71.4418 231.84 71.8572 231.529 71.8572C231.321 71.8572 231.009 71.4419 230.802 70.6111L224.569 47.2461C224.361 46.4154 223.842 46 223.115 46H205.56C204.937 46 204.418 46.6231 204.418 47.35V122.429Z" fill="#D16243"/>
<path d="M254.528 122.533C254.528 123.26 255.048 123.883 255.671 123.883H292.857C293.481 123.883 294 123.364 294 122.741V103.426C294 102.907 293.585 102.387 292.857 102.387H274.887C274.576 102.387 274.264 102.076 274.264 101.661V95.5337C274.264 95.0145 274.576 94.703 274.991 94.703H283.405C283.82 94.703 284.236 94.2876 284.236 93.7684V74.8687C284.236 74.4533 283.924 74.1418 283.509 74.1418H275.303C274.991 74.1418 274.576 73.8303 274.576 73.4149V67.5996C274.576 67.1842 274.887 66.8727 275.303 66.8727H292.65C293.273 66.8727 293.792 66.4573 293.792 65.8343V47.1423C293.792 46.5192 293.377 46 292.754 46H255.879C255.152 46 254.528 46.7269 254.528 47.35V122.533Z" fill="#D16243"/>
</g>
<g filter="url(#filter1_d)">
<path d="M59.9369 149.176H49.5637V146.954L55.3286 138.766H49.7003V135.861H59.7912V138.074L54.0263 146.271H59.9369V149.176ZM66.6216 149.358C64.9034 149.358 63.5676 148.903 62.6144 147.992C61.6673 147.075 61.1937 145.773 61.1937 144.085C61.1937 142.342 61.6339 141.007 62.5142 140.078C63.3946 139.143 64.6514 138.675 66.2846 138.675C67.8389 138.675 69.038 139.082 69.882 139.895C70.732 140.703 71.157 141.869 71.157 143.393V144.977H64.791C64.8153 145.554 65.0248 146.006 65.4194 146.334C65.8202 146.662 66.3636 146.826 67.0496 146.826C67.675 146.826 68.2488 146.768 68.7709 146.653C69.2991 146.532 69.8698 146.328 70.4831 146.043V148.602C69.9245 148.887 69.3477 149.085 68.7527 149.194C68.1577 149.303 67.4473 149.358 66.6216 149.358ZM66.4121 141.098C65.9932 141.098 65.641 141.231 65.3557 141.498C65.0764 141.759 64.9125 142.172 64.8639 142.737H67.9239C67.9118 142.239 67.7691 141.841 67.4959 141.544C67.2287 141.246 66.8675 141.098 66.4121 141.098ZM78.2242 146.544C78.7039 146.544 79.2776 146.425 79.9455 146.189V148.784C79.4658 148.991 79.0074 149.136 78.5703 149.221C78.1392 149.312 77.6323 149.358 77.0494 149.358C75.8533 149.358 74.9912 149.066 74.4629 148.484C73.9347 147.895 73.6706 146.993 73.6706 145.779V141.526H72.4229V140.078L74.0076 138.957L74.9274 136.79H77.2589V138.857H79.7907V141.526H77.2589V145.542C77.2589 146.21 77.5806 146.544 78.2242 146.544ZM88.479 149.176L87.7959 147.81H87.7231C87.2434 148.405 86.7547 148.811 86.2568 149.03C85.759 149.249 85.1154 149.358 84.3261 149.358C83.3546 149.358 82.5896 149.066 82.0311 148.484C81.4725 147.901 81.1932 147.081 81.1932 146.025C81.1932 144.926 81.5757 144.109 82.3407 143.575C83.1057 143.034 84.2138 142.731 85.6648 142.664L87.3861 142.609V142.464C87.3861 141.614 86.9672 141.189 86.1293 141.189C85.3764 141.189 84.4202 141.444 83.2605 141.954L82.2314 139.604C83.4336 138.985 84.9514 138.675 86.785 138.675C88.1086 138.675 89.1317 139.003 89.8542 139.659C90.5828 140.314 90.947 141.231 90.947 142.409V149.176H88.479ZM85.8379 146.844C86.269 146.844 86.6363 146.708 86.9399 146.435C87.2495 146.161 87.4043 145.806 87.4043 145.369V144.568L86.5847 144.604C85.4129 144.646 84.827 145.078 84.827 145.897C84.827 146.529 85.1639 146.844 85.8379 146.844ZM109.744 135.861V143.875C109.744 145.618 109.25 146.969 108.26 147.928C107.276 148.881 105.856 149.358 103.998 149.358C102.182 149.358 100.786 148.893 99.8084 147.965C98.837 147.036 98.3512 145.7 98.3512 143.957V135.861H101.967V143.675C101.967 144.616 102.143 145.299 102.495 145.724C102.847 146.149 103.366 146.362 104.052 146.362C104.787 146.362 105.318 146.152 105.646 145.733C105.98 145.308 106.147 144.616 106.147 143.657V135.861H109.744ZM124.535 149.176H120.373L117.777 145.014L115.209 149.176H111.138L115.555 142.364L111.402 135.861H115.391L117.795 139.977L120.108 135.861H124.216L119.999 142.646L124.535 149.176ZM136.756 149.176H133.159V138.803H129.908V135.861H139.999V138.803H136.756V149.176ZM146.674 149.358C144.956 149.358 143.62 148.903 142.667 147.992C141.72 147.075 141.246 145.773 141.246 144.085C141.246 142.342 141.687 141.007 142.567 140.078C143.447 139.143 144.704 138.675 146.337 138.675C147.892 138.675 149.091 139.082 149.935 139.895C150.785 140.703 151.21 141.869 151.21 143.393V144.977H144.844C144.868 145.554 145.077 146.006 145.472 146.334C145.873 146.662 146.416 146.826 147.102 146.826C147.728 146.826 148.301 146.768 148.824 146.653C149.352 146.532 149.923 146.328 150.536 146.043V148.602C149.977 148.887 149.4 149.085 148.805 149.194C148.21 149.303 147.5 149.358 146.674 149.358ZM146.465 141.098C146.046 141.098 145.694 141.231 145.408 141.498C145.129 141.759 144.965 142.172 144.917 142.737H147.977C147.964 142.239 147.822 141.841 147.549 141.544C147.281 141.246 146.92 141.098 146.465 141.098ZM159.953 149.176L159.27 147.81H159.197C158.717 148.405 158.228 148.811 157.73 149.03C157.233 149.249 156.589 149.358 155.8 149.358C154.828 149.358 154.063 149.066 153.505 148.484C152.946 147.901 152.667 147.081 152.667 146.025C152.667 144.926 153.049 144.109 153.814 143.575C154.579 143.034 155.687 142.731 157.139 142.664L158.86 142.609V142.464C158.86 141.614 158.441 141.189 157.603 141.189C156.85 141.189 155.894 141.444 154.734 141.954L153.705 139.604C154.907 138.985 156.425 138.675 158.259 138.675C159.582 138.675 160.605 139.003 161.328 139.659C162.056 140.314 162.421 141.231 162.421 142.409V149.176H159.953ZM157.312 146.844C157.743 146.844 158.11 146.708 158.414 146.435C158.723 146.161 158.878 145.806 158.878 145.369V144.568L158.058 144.604C156.887 144.646 156.301 145.078 156.301 145.897C156.301 146.529 156.638 146.844 157.312 146.844ZM177.511 149.176V143.566C177.511 142.867 177.414 142.345 177.22 141.999C177.032 141.647 176.731 141.471 176.318 141.471C175.772 141.471 175.371 141.705 175.116 142.172C174.861 142.64 174.734 143.371 174.734 144.367V149.176H171.164V143.566C171.164 142.867 171.073 142.345 170.89 141.999C170.708 141.647 170.414 141.471 170.007 141.471C169.448 141.471 169.042 141.72 168.787 142.218C168.532 142.716 168.404 143.529 168.404 144.659V149.176H164.843V138.857H167.53L167.976 140.132H168.186C168.459 139.659 168.853 139.297 169.37 139.049C169.892 138.8 170.484 138.675 171.145 138.675C172.633 138.675 173.677 139.127 174.278 140.032H174.561C174.852 139.607 175.256 139.276 175.772 139.039C176.294 138.797 176.868 138.675 177.493 138.675C178.714 138.675 179.615 138.988 180.198 139.613C180.781 140.239 181.072 141.189 181.072 142.464V149.176H177.511ZM186.61 135.879L186.746 136.08C186.188 138.302 185.65 140.005 185.134 141.189H182.602C183.015 139.264 183.313 137.494 183.495 135.879H186.61ZM196.127 146.006C196.127 147.111 195.75 147.946 194.997 148.511C194.244 149.076 193.164 149.358 191.755 149.358C190.99 149.358 190.325 149.315 189.761 149.23C189.196 149.151 188.619 149.003 188.03 148.784V145.934C188.583 146.176 189.187 146.377 189.843 146.535C190.504 146.693 191.093 146.771 191.609 146.771C192.381 146.771 192.766 146.595 192.766 146.243C192.766 146.061 192.657 145.9 192.438 145.761C192.226 145.615 191.6 145.336 190.562 144.923C189.615 144.534 188.953 144.094 188.577 143.602C188.2 143.104 188.012 142.476 188.012 141.717C188.012 140.758 188.382 140.011 189.123 139.477C189.864 138.942 190.911 138.675 192.265 138.675C192.945 138.675 193.583 138.751 194.178 138.903C194.779 139.049 195.401 139.264 196.045 139.549L195.079 141.844C194.606 141.632 194.105 141.453 193.577 141.307C193.048 141.155 192.617 141.079 192.283 141.079C191.701 141.079 191.409 141.222 191.409 141.507C191.409 141.684 191.509 141.835 191.71 141.963C191.916 142.084 192.505 142.336 193.476 142.719C194.199 143.016 194.736 143.308 195.088 143.593C195.447 143.878 195.708 144.215 195.872 144.604C196.042 144.986 196.127 145.454 196.127 146.006ZM208.959 149.176L206.236 139.586H206.154C206.281 141.219 206.345 142.488 206.345 143.393V149.176H203.157V135.861H207.948L210.726 145.314H210.798L213.521 135.861H218.321V149.176H215.015V143.338C215.015 143.034 215.018 142.697 215.024 142.327C215.036 141.957 215.079 141.049 215.152 139.604H215.07L212.383 149.176H208.959ZM227.711 149.176L227.028 147.81H226.955C226.475 148.405 225.986 148.811 225.488 149.03C224.991 149.249 224.347 149.358 223.558 149.358C222.586 149.358 221.821 149.066 221.263 148.484C220.704 147.901 220.425 147.081 220.425 146.025C220.425 144.926 220.807 144.109 221.572 143.575C222.337 143.034 223.445 142.731 224.896 142.664L226.618 142.609V142.464C226.618 141.614 226.199 141.189 225.361 141.189C224.608 141.189 223.652 141.444 222.492 141.954L221.463 139.604C222.665 138.985 224.183 138.675 226.017 138.675C227.34 138.675 228.363 139.003 229.086 139.659C229.814 140.314 230.179 141.231 230.179 142.409V149.176H227.711ZM225.069 146.844C225.501 146.844 225.868 146.708 226.171 146.435C226.481 146.161 226.636 145.806 226.636 145.369V144.568L225.816 144.604C224.644 144.646 224.059 145.078 224.059 145.897C224.059 146.529 224.396 146.844 225.069 146.844ZM242.337 138.857V140.579L240.925 141.098C241.119 141.45 241.217 141.86 241.217 142.327C241.217 143.438 240.825 144.3 240.042 144.914C239.265 145.527 238.102 145.833 236.554 145.833C236.171 145.833 235.868 145.809 235.643 145.761C235.558 145.918 235.515 146.067 235.515 146.207C235.515 146.383 235.658 146.52 235.944 146.617C236.229 146.708 236.602 146.753 237.064 146.753H238.776C241.089 146.753 242.246 147.728 242.246 149.677C242.246 150.933 241.708 151.911 240.634 152.609C239.565 153.307 238.062 153.657 236.126 153.657C234.662 153.657 233.533 153.411 232.738 152.919C231.948 152.433 231.554 151.732 231.554 150.815C231.554 149.583 232.319 148.787 233.849 148.429C233.533 148.295 233.257 148.08 233.02 147.782C232.789 147.485 232.674 147.19 232.674 146.899C232.674 146.577 232.762 146.295 232.938 146.052C233.114 145.803 233.482 145.509 234.04 145.169C233.506 144.932 233.084 144.561 232.774 144.058C232.471 143.554 232.319 142.94 232.319 142.218C232.319 141.095 232.701 140.223 233.466 139.604C234.231 138.985 235.324 138.675 236.745 138.675C236.933 138.675 237.258 138.696 237.719 138.739C238.181 138.781 238.521 138.821 238.739 138.857H242.337ZM234.559 150.46C234.559 150.751 234.717 150.985 235.033 151.161C235.349 151.343 235.77 151.434 236.299 151.434C237.161 151.434 237.85 151.325 238.366 151.107C238.888 150.894 239.149 150.618 239.149 150.278C239.149 150.005 238.991 149.81 238.676 149.695C238.36 149.586 237.908 149.531 237.319 149.531H235.925C235.543 149.531 235.218 149.619 234.951 149.795C234.69 149.977 234.559 150.199 234.559 150.46ZM235.679 142.236C235.679 143.293 236.047 143.821 236.781 143.821C237.121 143.821 237.382 143.69 237.565 143.429C237.753 143.168 237.847 142.776 237.847 142.254C237.847 141.186 237.492 140.651 236.781 140.651C236.047 140.651 235.679 141.18 235.679 142.236ZM250.643 149.176L249.96 147.81H249.887C249.407 148.405 248.918 148.811 248.42 149.03C247.923 149.249 247.279 149.358 246.49 149.358C245.518 149.358 244.753 149.066 244.195 148.484C243.636 147.901 243.357 147.081 243.357 146.025C243.357 144.926 243.739 144.109 244.504 143.575C245.269 143.034 246.377 142.731 247.828 142.664L249.55 142.609V142.464C249.55 141.614 249.131 141.189 248.293 141.189C247.54 141.189 246.584 141.444 245.424 141.954L244.395 139.604C245.597 138.985 247.115 138.675 248.949 138.675C250.272 138.675 251.295 139.003 252.018 139.659C252.746 140.314 253.111 141.231 253.111 142.409V149.176H250.643ZM248.002 146.844C248.433 146.844 248.8 146.708 249.103 146.435C249.413 146.161 249.568 145.806 249.568 145.369V144.568L248.748 144.604C247.577 144.646 246.991 145.078 246.991 145.897C246.991 146.529 247.328 146.844 248.002 146.844ZM263.293 149.176H254.75V147.145L259.021 141.58H254.996V138.857H263.092V141.061L259.003 146.453H263.293V149.176ZM268.566 149.176H265.005V138.857H268.566V149.176ZM264.914 136.289C264.914 135.755 265.062 135.357 265.36 135.096C265.657 134.835 266.137 134.704 266.799 134.704C267.461 134.704 267.943 134.838 268.247 135.105C268.55 135.372 268.702 135.767 268.702 136.289C268.702 137.333 268.068 137.855 266.799 137.855C265.542 137.855 264.914 137.333 264.914 136.289ZM277.564 149.176V143.548C277.564 142.861 277.463 142.345 277.263 141.999C277.069 141.647 276.753 141.471 276.316 141.471C275.715 141.471 275.281 141.711 275.014 142.191C274.746 142.67 274.613 143.493 274.613 144.659V149.176H271.052V138.857H273.739L274.185 140.132H274.394C274.698 139.647 275.117 139.282 275.651 139.039C276.191 138.797 276.811 138.675 277.509 138.675C278.65 138.675 279.537 139.006 280.168 139.668C280.806 140.33 281.125 141.262 281.125 142.464V149.176H277.564ZM288.529 149.358C286.811 149.358 285.475 148.903 284.522 147.992C283.574 147.075 283.101 145.773 283.101 144.085C283.101 142.342 283.541 141.007 284.421 140.078C285.302 139.143 286.559 138.675 288.192 138.675C289.746 138.675 290.945 139.082 291.789 139.895C292.639 140.703 293.064 141.869 293.064 143.393V144.977H286.698C286.722 145.554 286.932 146.006 287.327 146.334C287.727 146.662 288.271 146.826 288.957 146.826C289.582 146.826 290.156 146.768 290.678 146.653C291.206 146.532 291.777 146.328 292.39 146.043V148.602C291.832 148.887 291.255 149.085 290.66 149.194C290.065 149.303 289.354 149.358 288.529 149.358ZM288.319 141.098C287.9 141.098 287.548 141.231 287.263 141.498C286.984 141.759 286.82 142.172 286.771 142.737H289.831C289.819 142.239 289.676 141.841 289.403 141.544C289.136 141.246 288.775 141.098 288.319 141.098Z" fill="#D16243"/>
</g>
<defs>
<filter id="filter0_d" x="0.614754" y="0.631147" width="340.77" height="172.654" filterUnits="userSpaceOnUse" color-interpolation-filters="sRGB">
<feFlood flood-opacity="0" result="BackgroundImageFix"/>
<feColorMatrix in="SourceAlpha" type="matrix" values="0 0 0 0 0 0 0 0 0 0 0 0 0 0 0 0 0 0 127 0"/>
<feOffset dy="2.01639"/>
<feGaussianBlur stdDeviation="23.6926"/>
<feColorMatrix type="matrix" values="0 0 0 0 0.358333 0 0 0 0 0.276254 0 0 0 0 0.262778 0 0 0 0.2 0"/>
<feBlend mode="normal" in2="BackgroundImageFix" result="effect1_dropShadow"/>
<feBlend mode="normal" in="SourceGraphic" in2="effect1_dropShadow" result="shape"/>
</filter>
<filter id="filter1_d" x="7.21946" y="94.3767" width="328.189" height="103.641" filterUnits="userSpaceOnUse" color-interpolation-filters="sRGB">
<feFlood flood-opacity="0" result="BackgroundImageFix"/>
<feColorMatrix in="SourceAlpha" type="matrix" values="0 0 0 0 0 0 0 0 0 0 0 0 0 0 0 0 0 0 127 0"/>
<feOffset dy="2.01639"/>
<feGaussianBlur stdDeviation="21.1721"/>
<feColorMatrix type="matrix" values="0 0 0 0 0.325 0 0 0 0 0.21599 0 0 0 0 0.201771 0 0 0 0.3 0"/>
<feBlend mode="normal" in2="BackgroundImageFix" result="effect1_dropShadow"/>
<feBlend mode="normal" in="SourceGraphic" in2="effect1_dropShadow" result="shape"/>
</filter>
</defs>
</svg>
