<svg width="36" height="36" viewBox="0 0 36 36" fill="none" xmlns="http://www.w3.org/2000/svg">
<path fill-rule="evenodd" clip-rule="evenodd" d="M13.1974 10.8026L10.5 13.5H4.5V22.5H10.5L18 30V15.9415L13.1974 10.8026ZM21 19.1515V24C22.0241 23.5152 22.8929 22.7756 23.5355 21.8646L21 19.1515ZM24.5777 19.528L21 15.6997V11.955C23.25 13.065 24.75 15.345 24.75 18C24.75 18.5253 24.6906 19.0369 24.5777 19.528ZM26.1278 24.6384C24.8146 26.2389 23.0364 27.444 21 28.05V31.155C23.8375 30.5094 26.3396 28.9682 28.1888 26.8437L26.1278 24.6384ZM29.5987 24.9005L27.4421 22.5929C28.1196 21.2066 28.5 19.6484 28.5 18C28.5 13.245 25.335 9.22497 21 7.93497V4.84497C27 6.20997 31.5 11.58 31.5 18C31.5 20.5219 30.8056 22.8818 29.5987 24.9005ZM18 12.4896L14.8649 9.13504L18 5.99997V12.4896Z" fill="black"/>
<rect width="3.58663" height="40" transform="matrix(-0.730608 0.682797 0.682797 0.730608 6.18652 3.30078)" fill="#FC2323"/>
</svg>
